<svg width="135" height="42" viewBox="0 0 135 42" fill="none" xmlns="http://www.w3.org/2000/svg">
<circle cx="21" cy="21" r="19.5" stroke="black" stroke-width="3"/>
<path d="M19.3864 30.3409C17.5985 30.3409 16.1174 29.9773 14.9432 29.25C13.7689 28.5152 12.9432 27.4773 12.4659 26.1364C11.9962 24.7879 11.9167 23.1932 12.2273 21.3523C12.5303 19.5568 13.1402 17.9811 14.0568 16.625C14.9811 15.2689 16.1402 14.2121 17.5341 13.4545C18.928 12.697 20.4811 12.3182 22.1932 12.3182C23.3447 12.3182 24.3864 12.5038 25.3182 12.875C26.2576 13.2386 27.0379 13.7917 27.6591 14.5341C28.2803 15.2689 28.7045 16.1894 28.9318 17.2955C29.1667 18.4015 29.1629 19.697 28.9205 21.1818L28.7045 22.5114H13.9773L14.4432 19.5114H24.625C24.7386 18.8144 24.6932 18.197 24.4886 17.6591C24.2841 17.1212 23.9432 16.7008 23.4659 16.3977C22.9886 16.0871 22.4015 15.9318 21.7045 15.9318C20.9924 15.9318 20.3258 16.1061 19.7045 16.4545C19.0833 16.803 18.5606 17.2614 18.1364 17.8295C17.7197 18.3902 17.4508 19 17.3295 19.6591L16.7955 22.6364C16.6439 23.553 16.6742 24.3144 16.8864 24.9205C17.1061 25.5265 17.4848 25.9811 18.0227 26.2841C18.5606 26.5795 19.2424 26.7273 20.0682 26.7273C20.6061 26.7273 21.1098 26.6515 21.5795 26.5C22.0568 26.3485 22.4811 26.125 22.8523 25.8295C23.2235 25.5265 23.5265 25.1515 23.7614 24.7045L28.1818 25C27.7727 26.0758 27.1515 27.0152 26.3182 27.8182C25.4848 28.6136 24.4811 29.2348 23.3068 29.6818C22.1402 30.1212 20.8333 30.3409 19.3864 30.3409Z" fill="black"/>
<path d="M49.4545 40.5455V16.5455H52.0455V19.3182H52.3636C52.5606 19.0152 52.8333 18.6288 53.1818 18.1591C53.5379 17.6818 54.0455 17.2576 54.7045 16.8864C55.3712 16.5076 56.2727 16.3182 57.4091 16.3182C58.8788 16.3182 60.1742 16.6856 61.2955 17.4205C62.4167 18.1553 63.2917 19.197 63.9205 20.5455C64.5492 21.8939 64.8636 23.4848 64.8636 25.3182C64.8636 27.1667 64.5492 28.7689 63.9205 30.125C63.2917 31.4735 62.4205 32.5189 61.3068 33.2614C60.1932 33.9962 58.9091 34.3636 57.4545 34.3636C56.3333 34.3636 55.4356 34.178 54.7614 33.8068C54.0871 33.428 53.5682 33 53.2045 32.5227C52.8409 32.0379 52.5606 31.6364 52.3636 31.3182H52.1364V40.5455H49.4545ZM52.0909 25.2727C52.0909 26.5909 52.2841 27.7538 52.6705 28.7614C53.0568 29.7614 53.6212 30.5455 54.3636 31.1136C55.1061 31.6742 56.0152 31.9545 57.0909 31.9545C58.2121 31.9545 59.1477 31.6591 59.8977 31.0682C60.6553 30.4697 61.2235 29.6667 61.6023 28.6591C61.9886 27.6439 62.1818 26.5152 62.1818 25.2727C62.1818 24.0455 61.9924 22.9394 61.6136 21.9545C61.2424 20.9621 60.678 20.178 59.9205 19.6023C59.1705 19.0189 58.2273 18.7273 57.0909 18.7273C56 18.7273 55.0833 19.0038 54.3409 19.5568C53.5985 20.1023 53.0379 20.8674 52.6591 21.8523C52.2803 22.8295 52.0909 23.9697 52.0909 25.2727ZM74.0909 34.4091C72.9848 34.4091 71.9811 34.2008 71.0795 33.7841C70.178 33.3598 69.4621 32.75 68.9318 31.9545C68.4015 31.1515 68.1364 30.1818 68.1364 29.0455C68.1364 28.0455 68.3333 27.2348 68.7273 26.6136C69.1212 25.9848 69.6477 25.4924 70.3068 25.1364C70.9659 24.7803 71.6932 24.5152 72.4886 24.3409C73.2917 24.1591 74.0985 24.0152 74.9091 23.9091C75.9697 23.7727 76.8295 23.6705 77.4886 23.6023C78.1553 23.5265 78.6402 23.4015 78.9432 23.2273C79.2538 23.053 79.4091 22.75 79.4091 22.3182V22.2273C79.4091 21.1061 79.1023 20.2348 78.4886 19.6136C77.8826 18.9924 76.9621 18.6818 75.7273 18.6818C74.447 18.6818 73.4432 18.9621 72.7159 19.5227C71.9886 20.0833 71.4773 20.6818 71.1818 21.3182L68.6364 20.4091C69.0909 19.3485 69.697 18.5227 70.4545 17.9318C71.2197 17.3333 72.053 16.9167 72.9545 16.6818C73.8636 16.4394 74.7576 16.3182 75.6364 16.3182C76.197 16.3182 76.8409 16.3864 77.5682 16.5227C78.303 16.6515 79.0114 16.9205 79.6932 17.3295C80.3826 17.7386 80.9545 18.3561 81.4091 19.1818C81.8636 20.0076 82.0909 21.1136 82.0909 22.5V34H79.4091V31.6364H79.2727C79.0909 32.0152 78.7879 32.4205 78.3636 32.8523C77.9394 33.2841 77.375 33.6515 76.6705 33.9545C75.9659 34.2576 75.1061 34.4091 74.0909 34.4091ZM74.5 32C75.5606 32 76.4545 31.7917 77.1818 31.375C77.9167 30.9583 78.4697 30.4205 78.8409 29.7614C79.2197 29.1023 79.4091 28.4091 79.4091 27.6818V25.2273C79.2955 25.3636 79.0455 25.4886 78.6591 25.6023C78.2803 25.7083 77.8409 25.803 77.3409 25.8864C76.8485 25.9621 76.3674 26.0303 75.8977 26.0909C75.4356 26.1439 75.0606 26.1894 74.7727 26.2273C74.0758 26.3182 73.4242 26.4659 72.8182 26.6705C72.2197 26.8674 71.7348 27.1667 71.3636 27.5682C71 27.9621 70.8182 28.5 70.8182 29.1818C70.8182 30.1136 71.1629 30.8182 71.8523 31.2955C72.5492 31.7652 73.4318 32 74.5 32ZM94.0312 40.9091C92.7358 40.9091 91.6222 40.7424 90.6903 40.4091C89.7585 40.0833 88.982 39.6515 88.3608 39.1136C87.7472 38.5833 87.2585 38.0152 86.8949 37.4091L89.0312 35.9091C89.2737 36.2273 89.5805 36.5909 89.9517 37C90.3229 37.4167 90.8305 37.7765 91.4744 38.0795C92.1259 38.3902 92.9782 38.5455 94.0312 38.5455C95.4403 38.5455 96.6032 38.2045 97.5199 37.5227C98.4366 36.8409 98.8949 35.7727 98.8949 34.3182V30.7727H98.6676C98.4706 31.0909 98.1903 31.4848 97.8267 31.9545C97.4706 32.4167 96.9555 32.8295 96.2812 33.1932C95.6146 33.5492 94.7131 33.7273 93.5767 33.7273C92.1676 33.7273 90.9025 33.3939 89.7812 32.7273C88.6676 32.0606 87.785 31.0909 87.1335 29.8182C86.4896 28.5455 86.1676 27 86.1676 25.1818C86.1676 23.3939 86.482 21.8371 87.1108 20.5114C87.7396 19.178 88.6146 18.1477 89.7358 17.4205C90.857 16.6856 92.1525 16.3182 93.6222 16.3182C94.7585 16.3182 95.66 16.5076 96.3267 16.8864C97.0009 17.2576 97.5161 17.6818 97.8722 18.1591C98.2358 18.6288 98.5161 19.0152 98.7131 19.3182H98.9858V16.5455H101.577V34.5C101.577 36 101.236 37.2197 100.554 38.1591C99.8797 39.1061 98.9706 39.7992 97.8267 40.2386C96.6903 40.6856 95.4252 40.9091 94.0312 40.9091ZM93.9403 31.3182C95.0161 31.3182 95.9252 31.072 96.6676 30.5795C97.41 30.0871 97.9744 29.3788 98.3608 28.4545C98.7472 27.5303 98.9403 26.4242 98.9403 25.1364C98.9403 23.8788 98.7509 22.7689 98.3722 21.8068C97.9934 20.8447 97.4328 20.0909 96.6903 19.5455C95.9479 19 95.0313 18.7273 93.9403 18.7273C92.804 18.7273 91.857 19.0152 91.0994 19.5909C90.3494 20.1667 89.785 20.9394 89.4062 21.9091C89.035 22.8788 88.8494 23.9545 88.8494 25.1364C88.8494 26.3485 89.0388 27.4205 89.4176 28.3523C89.804 29.2765 90.3722 30.0038 91.1222 30.5341C91.8797 31.0568 92.8191 31.3182 93.9403 31.3182ZM113.804 34.3636C112.122 34.3636 110.671 33.9924 109.452 33.25C108.24 32.5 107.304 31.4545 106.645 30.1136C105.993 28.7652 105.668 27.197 105.668 25.4091C105.668 23.6212 105.993 22.0455 106.645 20.6818C107.304 19.3106 108.221 18.2424 109.395 17.4773C110.577 16.7045 111.955 16.3182 113.531 16.3182C114.44 16.3182 115.338 16.4697 116.224 16.7727C117.111 17.0758 117.918 17.5682 118.645 18.25C119.372 18.9242 119.952 19.8182 120.384 20.9318C120.815 22.0455 121.031 23.4167 121.031 25.0455V26.1818H107.577V23.8636H118.304C118.304 22.8788 118.107 22 117.713 21.2273C117.327 20.4545 116.774 19.8447 116.054 19.3977C115.342 18.9508 114.501 18.7273 113.531 18.7273C112.463 18.7273 111.539 18.9924 110.759 19.5227C109.986 20.0455 109.391 20.7273 108.974 21.5682C108.558 22.4091 108.349 23.3106 108.349 24.2727V25.8182C108.349 27.1364 108.577 28.2538 109.031 29.1705C109.493 30.0795 110.134 30.7727 110.952 31.25C111.77 31.7197 112.721 31.9545 113.804 31.9545C114.509 31.9545 115.145 31.8561 115.713 31.6591C116.289 31.4545 116.785 31.1515 117.202 30.75C117.618 30.3409 117.94 29.8333 118.168 29.2273L120.759 29.9545C120.486 30.8333 120.027 31.6061 119.384 32.2727C118.74 32.9318 117.944 33.447 116.997 33.8182C116.05 34.1818 114.986 34.3636 113.804 34.3636ZM125.111 34V16.5455H127.702V19.1818H127.884C128.202 18.3182 128.777 17.6174 129.611 17.0795C130.444 16.5417 131.384 16.2727 132.429 16.2727C132.626 16.2727 132.872 16.2765 133.168 16.2841C133.463 16.2917 133.687 16.303 133.838 16.3182V19.0455C133.747 19.0227 133.539 18.9886 133.213 18.9432C132.895 18.8902 132.558 18.8636 132.202 18.8636C131.353 18.8636 130.596 19.0417 129.929 19.3977C129.27 19.7462 128.747 20.2311 128.361 20.8523C127.982 21.4659 127.793 22.1667 127.793 22.9545V34H125.111Z" fill="#212529"/>
</svg>
